<svg width="20" height="20" viewBox="0 0 20 20" fill="none" xmlns="http://www.w3.org/2000/svg">
<path fill-rule="evenodd" clip-rule="evenodd" d="M15.8424 4.17566C14.3794 2.71269 12.0075 2.71269 10.5445 4.17566L8.4279 6.29224C6.9598 7.76034 6.96397 10.1419 8.4372 11.6048L8.77639 11.9416C9.07031 12.2335 9.54518 12.2318 9.83705 11.9379C10.1289 11.644 10.1272 11.1691 9.83333 10.8773L9.49414 10.5404C8.6102 9.66268 8.6077 8.23376 9.48856 7.3529L11.6051 5.23632C12.4823 4.35913 13.9045 4.35913 14.7817 5.23632C15.6605 6.11508 15.6586 7.54041 14.7776 8.41693L13.7256 9.46356C13.432 9.7557 13.4308 10.2306 13.7229 10.5242C14.0151 10.8179 14.4899 10.8191 14.7836 10.5269L15.8356 9.4803C17.3049 8.01844 17.308 5.64127 15.8424 4.17566ZM4.17849 15.8456C5.64295 17.3101 8.01732 17.3101 9.48179 15.8456L11.6031 13.7243C13.0676 12.2599 13.0676 9.88549 11.6031 8.42102L11.2411 8.05901C10.9482 7.76611 10.4733 7.76611 10.1804 8.05901C9.88754 8.3519 9.88754 8.82677 10.1804 9.11967L10.5424 9.48168C11.4211 10.3604 11.4211 11.785 10.5424 12.6637L8.42113 14.785C7.54245 15.6637 6.11783 15.6637 5.23915 14.785C4.36047 13.9063 4.36047 12.4817 5.23915 11.603L6.30812 10.534C6.60101 10.2411 6.60101 9.76627 6.30812 9.47337C6.01522 9.18048 5.54035 9.18048 5.24746 9.47337L4.17849 10.5423C2.71402 12.0068 2.71402 14.3812 4.17849 15.8456Z" fill="#4A4A4A"/>
</svg>
