<svg width="20" height="21" viewBox="0 0 20 21" fill="none" xmlns="http://www.w3.org/2000/svg">
<path d="M6.25 10.75C6.25 10.5511 6.32902 10.3603 6.46967 10.2197C6.61032 10.079 6.80109 10 7 10H9.25V7.75C9.25 7.55109 9.32902 7.36032 9.46967 7.21967C9.61032 7.07902 9.80109 7 10 7C10.1989 7 10.3897 7.07902 10.5303 7.21967C10.671 7.36032 10.75 7.55109 10.75 7.75V10H13C13.1989 10 13.3897 10.079 13.5303 10.2197C13.671 10.3603 13.75 10.5511 13.75 10.75C13.75 10.9489 13.671 11.1397 13.5303 11.2803C13.3897 11.421 13.1989 11.5 13 11.5H10.75V13.75C10.75 13.9489 10.671 14.1397 10.5303 14.2803C10.3897 14.421 10.1989 14.5 10 14.5C9.80109 14.5 9.61032 14.421 9.46967 14.2803C9.32902 14.1397 9.25 13.9489 9.25 13.75V11.5H7C6.80109 11.5 6.61032 11.421 6.46967 11.2803C6.32902 11.1397 6.25 10.9489 6.25 10.75Z" fill="#4B71FC"/>
<path fill-rule="evenodd" clip-rule="evenodd" d="M10 17.75C10.9193 17.75 11.8295 17.5689 12.6788 17.2172C13.5281 16.8654 14.2997 16.3498 14.9497 15.6997C15.5998 15.0497 16.1154 14.2781 16.4672 13.4288C16.8189 12.5795 17 11.6693 17 10.75C17 9.83075 16.8189 8.9205 16.4672 8.07122C16.1154 7.22194 15.5998 6.45026 14.9497 5.80025C14.2997 5.15024 13.5281 4.63463 12.6788 4.28284C11.8295 3.93106 10.9193 3.75 10 3.75C8.14348 3.75 6.36301 4.4875 5.05025 5.80025C3.7375 7.11301 3 8.89348 3 10.75C3 12.6065 3.7375 14.387 5.05025 15.6997C6.36301 17.0125 8.14348 17.75 10 17.75ZM10 16.25C11.4587 16.25 12.8576 15.6705 13.8891 14.6391C14.9205 13.6076 15.5 12.2087 15.5 10.75C15.5 9.29131 14.9205 7.89236 13.8891 6.86091C12.8576 5.82946 11.4587 5.25 10 5.25C8.54131 5.25 7.14236 5.82946 6.11091 6.86091C5.07946 7.89236 4.5 9.29131 4.5 10.75C4.5 12.2087 5.07946 13.6076 6.11091 14.6391C7.14236 15.6705 8.54131 16.25 10 16.25Z" fill="#4B71FC"/>
</svg>
