<svg width="20" height="20" viewBox="0 0 20 20" fill="none" xmlns="http://www.w3.org/2000/svg">
<path fill-rule="evenodd" clip-rule="evenodd" d="M14.7375 3.67663C14.0541 2.99321 12.9461 2.99321 12.2627 3.67663L3.67687 12.2624C2.99345 12.9458 2.99345 14.0539 3.67687 14.7373L5.26266 16.3231C5.94607 17.0065 7.05411 17.0065 7.73753 16.3231L14.5213 9.53926L14.5304 9.53033L14.5394 9.52125L16.3233 7.73729C17.0067 7.05387 17.0067 5.94583 16.3233 5.26241L14.7375 3.67663ZM14 7.93926L15.2627 6.67662C15.3603 6.57899 15.3603 6.4207 15.2627 6.32307L13.6769 4.73729C13.5792 4.63965 13.4209 4.63965 13.3233 4.73729L12.0607 5.99993L14 7.93926ZM11 7.06059L4.73753 13.3231C4.6399 13.4207 4.6399 13.579 4.73753 13.6766L6.32332 15.2624C6.42095 15.36 6.57924 15.36 6.67687 15.2624L12.9394 8.99993L11 7.06059Z" fill="#4A4A4A"/>
<path d="M14.2501 12C14.6643 12 15.0001 12.3358 15.0001 12.75V13.5H15.7501C16.1643 13.5 16.5001 13.8358 16.5001 14.25C16.5001 14.6642 16.1643 15 15.7501 15H15.0001V15.75C15.0001 16.1642 14.6643 16.5 14.2501 16.5C13.8359 16.5 13.5001 16.1642 13.5001 15.75V15H12.7501C12.3359 15 12.0001 14.6642 12.0001 14.25C12.0001 13.8358 12.3359 13.5 12.7501 13.5H13.5001V12.75C13.5001 12.3358 13.8359 12 14.2501 12Z" fill="#4A4A4A"/>
<path d="M6.50009 4.25C6.50009 3.83579 6.16431 3.5 5.75009 3.5C5.33588 3.5 5.00009 3.83579 5.00009 4.25V5H4.25009C3.83588 5 3.50009 5.33579 3.50009 5.75C3.50009 6.16421 3.83588 6.5 4.25009 6.5H5.00009V7.25C5.00009 7.66421 5.33588 8 5.75009 8C6.16431 8 6.50009 7.66421 6.50009 7.25V6.5H7.25009C7.66431 6.5 8.00009 6.16421 8.00009 5.75C8.00009 5.33579 7.66431 5 7.25009 5H6.50009V4.25Z" fill="#4A4A4A"/>
</svg>
