<svg width="20" height="20" viewBox="0 0 20 20" fill="none" xmlns="http://www.w3.org/2000/svg">
<path fill-rule="evenodd" clip-rule="evenodd" d="M16.7501 10C16.7501 10.1989 16.6711 10.3897 16.5304 10.5303C16.3898 10.671 16.199 10.75 16.0001 10.75H6.31007L9.03007 13.47C9.16255 13.6122 9.23468 13.8002 9.23125 13.9945C9.22782 14.1888 9.14911 14.3742 9.01169 14.5116C8.87428 14.649 8.6889 14.7277 8.49459 14.7312C8.30029 14.7346 8.11225 14.6625 7.97007 14.53L3.97007 10.53C3.82962 10.3894 3.75073 10.1987 3.75073 10C3.75073 9.80125 3.82962 9.61062 3.97007 9.47L7.97007 5.47C8.11225 5.33752 8.30029 5.2654 8.49459 5.26882C8.6889 5.27225 8.87428 5.35096 9.01169 5.48838C9.14911 5.62579 9.22782 5.81118 9.23125 6.00548C9.23468 6.19978 9.16255 6.38782 9.03007 6.53L6.31007 9.25H16.0001C16.199 9.25 16.3898 9.32902 16.5304 9.46967C16.6711 9.61032 16.7501 9.80109 16.7501 10Z" fill="black"/>
</svg>
