<svg width="50" height="50" viewBox="0 0 50 50" fill="none" xmlns="http://www.w3.org/2000/svg"><rect width="50" height="50" rx="8.33333" fill="#FEF0E3"></rect><path d="M25 15.75C26.6927 15.75 28.2715 16.1813 29.7363 17.0439C31.1523 17.8577 32.2754 18.9727 33.1055 20.3887C33.9518 21.8535 34.375 23.4323 34.375 25.125C34.375 26.8177 33.9518 28.3965 33.1055 29.8613C32.2754 31.2773 31.1523 32.4004 29.7363 33.2305C28.2715 34.0768 26.6927 34.5 25 34.5C23.3073 34.5 21.7285 34.0768 20.2637 33.2305C18.8477 32.4004 17.7327 31.2773 16.9189 29.8613C16.0563 28.3965 15.625 26.8177 15.625 25.125C15.625 23.4323 16.0563 21.8535 16.9189 20.3887C17.7327 18.9727 18.8477 17.8577 20.2637 17.0439C21.7285 16.1813 23.3073 15.75 25 15.75ZM25 17.3125C23.584 17.3125 22.2656 17.6706 21.0449 18.3867C19.873 19.0703 18.9453 19.998 18.2617 21.1699C17.5456 22.3906 17.1875 23.709 17.1875 25.125C17.1875 26.541 17.5456 27.8594 18.2617 29.0801C18.9453 30.252 19.873 31.1797 21.0449 31.8633C22.2656 32.5794 23.584 32.9375 25 32.9375C26.416 32.9375 27.7344 32.5794 28.9551 31.8633C30.127 31.1797 31.0547 30.252 31.7383 29.0801C32.4544 27.8594 32.8125 26.541 32.8125 25.125C32.8125 23.709 32.4544 22.3906 31.7383 21.1699C31.0547 19.998 30.127 19.0703 28.9551 18.3867C27.7344 17.6706 26.416 17.3125 25 17.3125ZM24.2188 20.4375H25.7812V26.6875H24.2188V20.4375ZM24.2188 28.25H25.7812V29.8125H24.2188V28.25Z" fill="#FF862B"></path></svg>