<svg width="20" height="20" viewBox="0 0 20 20" fill="none" xmlns="http://www.w3.org/2000/svg">
<path fill-rule="evenodd" clip-rule="evenodd" d="M5.71983 8.46991C5.86045 8.32946 6.05108 8.25057 6.24983 8.25057C6.44858 8.25057 6.6392 8.32946 6.77983 8.46991L10.2498 11.9399L13.7198 8.46991C13.7885 8.39622 13.8713 8.33712 13.9633 8.29613C14.0553 8.25514 14.1546 8.23309 14.2553 8.23132C14.356 8.22954 14.456 8.24807 14.5494 8.28579C14.6428 8.32351 14.7276 8.37965 14.7989 8.45087C14.8701 8.52209 14.9262 8.60692 14.964 8.70031C15.0017 8.7937 15.0202 8.89373 15.0184 8.99443C15.0166 9.09513 14.9946 9.19445 14.9536 9.28645C14.9126 9.37845 14.8535 9.46125 14.7798 9.52991L10.7798 13.5299C10.6392 13.6704 10.4486 13.7492 10.2498 13.7492C10.0511 13.7492 9.86045 13.6704 9.71983 13.5299L5.71983 9.52991C5.57938 9.38928 5.50049 9.19866 5.50049 8.99991C5.50049 8.80116 5.57938 8.61054 5.71983 8.46991Z" fill="#1F2124"/>
</svg>
