<svg width="20" height="20" viewBox="0 0 20 20" fill="none" xmlns="http://www.w3.org/2000/svg">
<path d="M16.422 12.5275C16.2814 12.6682 16.0906 12.7472 15.8917 12.7472C15.6928 12.7472 15.502 12.6682 15.3614 12.5275C15.2207 12.3869 15.1417 12.1961 15.1417 11.9972C15.1417 11.7983 15.2207 11.6075 15.3614 11.4668L15.8493 10.9789L11.2955 10.9789C11.1013 10.9721 10.9173 10.8901 10.7824 10.7503C10.6474 10.6105 10.572 10.4237 10.572 10.2294C10.572 10.0351 10.6474 9.84834 10.7824 9.70852C10.9173 9.5687 11.1013 9.48673 11.2955 9.47988L15.8493 9.47988L15.3614 8.99198C15.2207 8.85132 15.1417 8.66056 15.1417 8.46164C15.1417 8.26273 15.2207 8.07197 15.3614 7.93131C15.502 7.79066 15.6928 7.71165 15.8917 7.71165C16.0906 7.71165 16.2814 7.79066 16.422 7.93131L18.1898 9.69908C18.4825 9.99182 18.4825 10.467 18.1898 10.7597L16.422 12.5275Z" fill="#1F2124"/>
<path d="M3.29809 7.95777C3.43874 7.81712 3.6295 7.7381 3.82842 7.7381C4.02733 7.7381 4.21809 7.81712 4.35875 7.95777C4.4994 8.09842 4.57842 8.28919 4.57842 8.4881C4.57842 8.68701 4.4994 8.87778 4.35875 9.01843L3.87084 9.50634L8.42461 9.50634C8.52527 9.50278 8.62561 9.51954 8.71965 9.55561C8.81369 9.59168 8.8995 9.64632 8.97196 9.71627C9.04442 9.78622 9.10206 9.87005 9.14142 9.96276C9.18078 10.0555 9.20107 10.1552 9.20107 10.2559C9.20107 10.3566 9.18078 10.4563 9.14142 10.549C9.10206 10.6417 9.04442 10.7255 8.97196 10.7955C8.8995 10.8654 8.81369 10.9201 8.71965 10.9561C8.62561 10.9922 8.52527 11.009 8.42461 11.0054L3.87084 11.0054L4.35875 11.4933C4.4994 11.634 4.57842 11.8247 4.57842 12.0236C4.57842 12.2225 4.4994 12.4133 4.35875 12.554C4.21809 12.6946 4.02733 12.7736 3.82842 12.7736C3.6295 12.7736 3.43874 12.6946 3.29809 12.554L1.53032 10.7862C1.38967 10.6455 1.31065 10.4548 1.31065 10.2559C1.31065 10.057 1.38967 9.86619 1.53032 9.72554L3.29809 7.95777Z" fill="#1F2124"/>
</svg>
