<svg width="21" height="20" viewBox="0 0 21 20" fill="none" xmlns="http://www.w3.org/2000/svg">
<path fill-rule="evenodd" clip-rule="evenodd" d="M13.5 10C13.5 10.7956 13.1839 11.5587 12.6213 12.1213C12.0587 12.6839 11.2956 13 10.5 13C9.70435 13 8.94129 12.6839 8.37868 12.1213C7.81607 11.5587 7.5 10.7956 7.5 10C7.5 9.20435 7.81607 8.44129 8.37868 7.87868C8.94129 7.31607 9.70435 7 10.5 7C11.2956 7 12.0587 7.31607 12.6213 7.87868C13.1839 8.44129 13.5 9.20435 13.5 10ZM12 10C12 10.3978 11.842 10.7794 11.5607 11.0607C11.2794 11.342 10.8978 11.5 10.5 11.5C10.1022 11.5 9.72064 11.342 9.43934 11.0607C9.15804 10.7794 9 10.3978 9 10C9 9.60218 9.15804 9.22064 9.43934 8.93934C9.72064 8.65804 10.1022 8.5 10.5 8.5C10.8978 8.5 11.2794 8.65804 11.5607 8.93934C11.842 9.22064 12 9.60218 12 10Z" fill="black"/>
<path fill-rule="evenodd" clip-rule="evenodd" d="M10.5 4C8.024 4 6.152 5.23 4.923 6.532C4.37573 7.10988 3.90519 7.75587 3.523 8.454C3.37934 8.71701 3.25566 8.99045 3.153 9.272C3.071 9.499 3 9.76 3 10C3 10.24 3.071 10.501 3.152 10.728C3.24 10.974 3.365 11.252 3.523 11.546C3.84 12.133 4.307 12.816 4.923 13.468C6.152 14.77 8.023 16 10.5 16C12.976 16 14.848 14.77 16.077 13.468C16.6243 12.8901 17.0948 12.2441 17.477 11.546C17.6207 11.283 17.7443 11.0096 17.847 10.728C17.929 10.501 18 10.24 18 10C18 9.76 17.929 9.499 17.848 9.272C17.745 8.99042 17.621 8.71699 17.477 8.454C17.0948 7.75588 16.6242 7.1099 16.077 6.532C14.848 5.23 12.977 4 10.5 4ZM4.501 10.002V9.998C4.505 9.978 4.518 9.908 4.565 9.775C4.64246 9.56572 4.73539 9.36249 4.843 9.167C5.16271 8.58414 5.55593 8.04473 6.013 7.562C7.055 6.458 8.558 5.5 10.5 5.5C12.442 5.5 13.945 6.458 14.986 7.562C15.4431 8.04475 15.8363 8.58415 16.156 9.167C16.286 9.407 16.377 9.614 16.435 9.775C16.482 9.907 16.495 9.978 16.499 9.998V10.002C16.495 10.022 16.482 10.092 16.435 10.225C16.3575 10.4343 16.2646 10.6375 16.157 10.833C15.8373 11.4159 15.4441 11.9553 14.987 12.438C13.945 13.542 12.442 14.5 10.5 14.5C8.558 14.5 7.055 13.542 6.014 12.438C5.55691 11.9553 5.1637 11.4159 4.844 10.833C4.73604 10.6375 4.64279 10.4343 4.565 10.225C4.518 10.093 4.505 10.022 4.501 10.002Z" fill="black"/>
</svg>
