<svg width="20" height="9" viewBox="0 0 20 9" fill="none" xmlns="http://www.w3.org/2000/svg">
<path d="M14.973 0.902802C14.017 0.903179 13.0935 1.2495 12.373 1.8778L10.3896 3.61114L8.40631 1.8778C7.68582 1.2495 6.76228 0.903179 5.80632 0.902802C4.86701 0.902802 3.96617 1.27594 3.30198 1.94013C2.63779 2.60432 2.26465 3.50516 2.26465 4.44447C2.26465 5.38378 2.63779 6.28461 3.30198 6.94881C3.96617 7.613 4.86701 7.98614 5.80632 7.98614C6.76228 7.98576 7.68582 7.63943 8.40631 7.01114L10.3896 5.2778L12.373 7.01114C13.0935 7.63943 14.017 7.98576 14.973 7.98614C15.9123 7.98614 16.8131 7.613 17.4773 6.94881C18.1415 6.28461 18.5146 5.38378 18.5146 4.44447C18.5146 3.50516 18.1415 2.60432 17.4773 1.94013C16.8131 1.27594 15.9123 0.902802 14.973 0.902802ZM7.58132 6.11114C7.0893 6.53997 6.45898 6.77671 5.80632 6.7778C5.19853 6.7778 4.61563 6.53636 4.18586 6.10659C3.75609 5.67682 3.51465 5.09392 3.51465 4.48614C3.51465 3.87835 3.75609 3.29545 4.18586 2.86568C4.61563 2.43591 5.19853 2.19447 5.80632 2.19447C6.45898 2.19556 7.0893 2.4323 7.58132 2.86114L9.43965 4.44447L7.58132 6.11114ZM14.973 6.7778C14.3203 6.77671 13.69 6.53997 13.198 6.11114L11.3396 4.44447L13.198 2.81947C13.69 2.39063 14.3203 2.15389 14.973 2.1528C15.5808 2.1528 16.1637 2.39424 16.5934 2.82402C17.0232 3.25379 17.2646 3.83668 17.2646 4.44447C17.2646 5.05226 17.0232 5.63515 16.5934 6.06492C16.1637 6.49469 15.5808 6.73614 14.973 6.73614V6.7778Z" fill="black"/>
</svg>
