<svg width="14" height="14" viewBox="0 0 14 14" fill="none" xmlns="http://www.w3.org/2000/svg">
<g clip-path="url(#clip0_2629_34)">
<path d="M7.00271 3.85546C5.26365 3.85546 3.86091 5.2582 3.86091 6.99726C3.86091 8.73632 5.26365 10.1391 7.00271 10.1391C8.74177 10.1391 10.1445 8.73632 10.1445 6.99726C10.1445 5.2582 8.74177 3.85546 7.00271 3.85546ZM7.00271 9.03984C5.87888 9.03984 4.96013 8.12382 4.96013 6.99726C4.96013 5.8707 5.87615 4.95468 7.00271 4.95468C8.12927 4.95468 9.04529 5.8707 9.04529 6.99726C9.04529 8.12382 8.12654 9.03984 7.00271 9.03984ZM11.0058 3.72695C11.0058 4.13437 10.6777 4.45976 10.273 4.45976C9.8656 4.45976 9.54021 4.13163 9.54021 3.72695C9.54021 3.32226 9.86834 2.99413 10.273 2.99413C10.6777 2.99413 11.0058 3.32226 11.0058 3.72695ZM13.0867 4.4707C13.0402 3.48906 12.816 2.61953 12.0969 1.90312C11.3804 1.18671 10.5109 0.962494 9.52927 0.913275C8.51755 0.855853 5.48513 0.855853 4.47341 0.913275C3.49451 0.95976 2.62498 1.18398 1.90584 1.90038C1.18669 2.61679 0.96521 3.48632 0.915991 4.46796C0.858569 5.47968 0.858569 8.5121 0.915991 9.52382C0.962476 10.5055 1.18669 11.375 1.90584 12.0914C2.62498 12.8078 3.49177 13.032 4.47341 13.0812C5.48513 13.1387 8.51755 13.1387 9.52927 13.0812C10.5109 13.0348 11.3804 12.8105 12.0969 12.0914C12.8133 11.375 13.0375 10.5055 13.0867 9.52382C13.1441 8.5121 13.1441 5.48242 13.0867 4.4707ZM11.7797 10.6094C11.5664 11.1453 11.1535 11.5582 10.6148 11.7742C9.80818 12.0941 7.89412 12.0203 7.00271 12.0203C6.1113 12.0203 4.19451 12.0914 3.3906 11.7742C2.85466 11.5609 2.44177 11.148 2.22576 10.6094C1.90584 9.80273 1.97966 7.88867 1.97966 6.99726C1.97966 6.10585 1.90857 4.18906 2.22576 3.38515C2.43904 2.84921 2.85193 2.43632 3.3906 2.22031C4.19724 1.90038 6.1113 1.97421 7.00271 1.97421C7.89412 1.97421 9.81091 1.90312 10.6148 2.22031C11.1508 2.43359 11.5636 2.84648 11.7797 3.38515C12.0996 4.19179 12.0258 6.10585 12.0258 6.99726C12.0258 7.88867 12.0996 9.80546 11.7797 10.6094Z" fill="#D3029B"/>
</g>
<defs>
<clipPath id="clip0_2629_34">
<rect width="14" height="14" fill="white"/>
</clipPath>
</defs>
</svg>
