<svg width="184" height="80" viewBox="0 0 184 80" fill="none" xmlns="http://www.w3.org/2000/svg">
<path fill-rule="evenodd" clip-rule="evenodd" d="M183.523 77.785L171.682 79.7336C171.592 79.1855 171.496 78.6394 171.395 78.0952L183.193 75.9029C183.309 76.5281 183.419 77.1555 183.523 77.785ZM179.498 62.0807L168.18 66.0691C167.996 65.5464 167.807 65.0262 167.612 64.5084L178.845 60.2867C179.069 60.8818 179.286 61.4798 179.498 62.0807ZM172.789 47.3217L162.342 53.2242C162.069 52.7414 161.791 52.2616 161.509 51.7849L171.833 45.6688C172.157 46.2162 172.476 46.7672 172.789 47.3217ZM163.616 33.9544L154.349 41.5783C153.997 41.1496 153.64 40.7246 153.278 40.3034L162.388 32.4918C162.802 32.9751 163.212 33.4626 163.616 33.9544ZM152.27 22.3737L144.458 31.483C144.037 31.1218 143.612 30.7648 143.183 30.4122L150.807 21.1452C151.299 21.5498 151.786 21.9593 152.27 22.3737ZM139.093 12.9283L132.977 23.2527C132.5 22.9704 132.02 22.6928 131.537 22.42L137.44 11.972C137.994 12.2853 138.545 12.6041 139.093 12.9283ZM124.475 5.91654L120.253 17.1494C119.735 16.9548 119.215 16.7654 118.692 16.5812L122.681 5.26342C123.282 5.47515 123.88 5.69288 124.475 5.91654ZM108.859 1.5682L106.666 13.3662C106.122 13.2651 105.576 13.1694 105.028 13.0792L106.977 1.23851C107.606 1.3421 108.233 1.45203 108.859 1.5682ZM92.7208 0.00484512L92.5995 12.0042C92.3206 12.0014 92.0412 12 91.7615 12C91.4818 12 91.2024 12.0014 90.9235 12.0042L90.8022 0.00484497C91.1216 0.00161757 91.4414 0 91.7615 0C92.0816 0 92.4014 0.00161762 92.7208 0.00484512ZM76.5465 1.2385L78.4951 13.0792C77.947 13.1694 77.4009 13.2651 76.8567 13.3662L74.6644 1.5682C75.2896 1.45202 75.917 1.3421 76.5465 1.2385ZM60.8422 5.26341L64.8306 16.5812C64.3079 16.7654 63.7877 16.9548 63.2699 17.1494L59.0482 5.91654C59.6433 5.69288 60.2413 5.47515 60.8422 5.26341ZM46.0831 11.972L51.9857 22.42C51.5029 22.6928 51.0231 22.9704 50.5464 23.2527L44.4303 12.9283C44.9777 12.6041 45.5287 12.2853 46.0831 11.972ZM32.7159 21.1452L40.3398 30.4121C39.9111 30.7648 39.4861 31.1218 39.0649 31.483L31.2533 22.3737C31.7366 21.9593 32.2241 21.5497 32.7159 21.1452ZM21.1352 32.4918L30.2445 40.3034C29.8833 40.7246 29.5263 41.1496 29.1736 41.5783L19.9067 33.9544C20.3112 33.4626 20.7208 32.9751 21.1352 32.4918ZM11.6898 45.6688L22.0142 51.7849C21.7319 52.2616 21.4542 52.7414 21.1815 53.2242L10.7335 47.3216C11.0468 46.7672 11.3656 46.2162 11.6898 45.6688ZM4.67804 60.2867L15.9109 64.5084C15.7163 65.0262 15.5269 65.5464 15.3427 66.0691L4.02491 62.0806C4.23665 61.4798 4.45438 60.8818 4.67804 60.2867ZM0.329695 75.9028L12.1277 78.0952C12.0266 78.6393 11.9309 79.1855 11.8407 79.7336L0 77.785C0.103599 77.1554 0.21352 76.528 0.329695 75.9028Z" fill="#D6D6D6"/>
</svg>
