<svg width="21" height="20" viewBox="0 0 21 20" fill="none" xmlns="http://www.w3.org/2000/svg">
<path d="M14 2H7C6.17188 2 5.5 2.67188 5.5 3.5V16.5C5.5 17.3281 6.17188 18 7 18H14C14.8281 18 15.5 17.3281 15.5 16.5V3.5C15.5 2.67188 14.8281 2 14 2ZM10.5 17C9.94687 17 9.5 16.5531 9.5 16C9.5 15.4469 9.94687 15 10.5 15C11.0531 15 11.5 15.4469 11.5 16C11.5 16.5531 11.0531 17 10.5 17ZM14 13.625C14 13.8312 13.8312 14 13.625 14H7.375C7.16875 14 7 13.8312 7 13.625V3.875C7 3.66875 7.16875 3.5 7.375 3.5H13.625C13.8312 3.5 14 3.66875 14 3.875V13.625Z" fill="#4A4A4A"/>
</svg>
