<svg width="20" height="21" viewBox="0 0 20 21" fill="none" xmlns="http://www.w3.org/2000/svg">
<path d="M13.75 9.94446C14.1642 9.94446 14.5 9.60867 14.5 9.19446C14.5 8.78024 14.1642 8.44446 13.75 8.44446H13.0607L16.2803 5.22479C16.5732 4.93189 16.5732 4.45702 16.2803 4.16413C15.9874 3.87123 15.5126 3.87123 15.2197 4.16413L12 7.3838V6.69446C12 6.28024 11.6642 5.94446 11.25 5.94446C10.8358 5.94446 10.5 6.28024 10.5 6.69446L10.5 9.19446C10.5 9.60867 10.8358 9.94446 11.25 9.94446H13.75Z" fill="#4A4A4A"/>
<path d="M6.25 10.9445C5.83579 10.9445 5.5 11.2802 5.5 11.6945C5.5 12.1087 5.83579 12.4445 6.25 12.4445H6.93934L3.71967 15.6641C3.42678 15.957 3.42678 16.4319 3.71967 16.7248C4.01256 17.0177 4.48744 17.0177 4.78033 16.7248L8 13.5051V14.1945C8 14.6087 8.33579 14.9445 8.75 14.9445C9.16421 14.9445 9.5 14.6087 9.5 14.1945V11.6945C9.5 11.2802 9.16421 10.9445 8.75 10.9445H6.25Z" fill="#4A4A4A"/>
</svg>
