<svg width="40" height="40" viewBox="0 0 40 40" fill="none" xmlns="http://www.w3.org/2000/svg">
<path d="M5.3725 14.5C7.59875 8.58625 13.3113 4.375 20 4.375C26.6887 4.375 32.4013 8.58625 34.6275 14.5C35.9263 14.8787 36.875 16.0788 36.875 17.5V22.5C36.875 23.9212 35.9263 25.1213 34.6275 25.5C32.4013 31.4138 26.6887 35.625 20 35.625C13.3113 35.625 7.59875 31.4138 5.3725 25.5C4.07375 25.1213 3.125 23.9212 3.125 22.5C3.125 20.9725 3.125 19.0275 3.125 17.5C3.125 16.0788 4.07375 14.8787 5.3725 14.5ZM17.1513 25.625C17.4688 28.7262 18.0387 31.2963 18.7675 32.8988C19 33.4088 19.2438 33.8125 19.5063 34.0862C19.6688 34.255 19.8237 34.375 20 34.375C20.1763 34.375 20.3312 34.255 20.4937 34.0862C20.7562 33.8125 21 33.4088 21.2325 32.8988C21.9613 31.2963 22.5312 28.7262 22.8487 25.625H17.1513ZM24.105 25.625C23.7425 29.2388 23.0312 32.1775 22.1562 33.8513C22.7237 33.57 23.265 33.1813 23.7737 32.7025C25.4325 31.1413 26.7362 28.64 27.47 25.625H24.105ZM12.53 25.625C13.2638 28.64 14.5675 31.1413 16.2263 32.7025C16.735 33.1813 17.2763 33.57 17.8438 33.8513C16.9688 32.1775 16.2575 29.2375 15.895 25.625H12.53ZM6.76875 25.625C8.36125 29.3637 11.4937 32.2912 15.3675 33.6112C13.5087 31.8612 12.03 29.0387 11.245 25.625H6.76875ZM28.755 25.625C27.97 29.04 26.4913 31.8612 24.6325 33.6112C28.5063 32.2912 31.6375 29.3637 33.2312 25.625H28.755ZM33.75 15.625H6.25C5.215 15.625 4.375 16.465 4.375 17.5V22.5C4.375 23.535 5.215 24.375 6.25 24.375H33.75C34.785 24.375 35.625 23.535 35.625 22.5V17.5C35.625 16.465 34.785 15.625 33.75 15.625ZM20 20.7725L19.3087 22.155C19.1962 22.38 18.9575 22.5163 18.7062 22.4988C18.4537 22.48 18.2375 22.3125 18.1575 22.0725L16.9075 18.3225C16.7975 17.995 16.975 17.6413 17.3025 17.5325C17.63 17.4225 17.9837 17.6 18.0925 17.9275L18.8663 20.2462L19.4413 19.095C19.5463 18.8838 19.7638 18.75 20 18.75C20.2362 18.75 20.4537 18.8838 20.5587 19.095L21.1337 20.2462L21.9075 17.9275C22.0163 17.6 22.37 17.4225 22.6975 17.5325C23.025 17.6413 23.2025 17.995 23.0925 18.3225L21.8425 22.0725C21.7625 22.3125 21.5463 22.48 21.2938 22.4988C21.0425 22.5163 20.8038 22.38 20.6913 22.155L20 20.7725ZM12.3837 20.2462L13.1575 17.9275C13.2663 17.6 13.62 17.4225 13.9475 17.5325C14.275 17.6413 14.4525 17.995 14.3425 18.3225L13.0925 22.0725C13.0125 22.3125 12.7963 22.48 12.5438 22.4988C12.2925 22.5163 12.0538 22.38 11.9413 22.155L11.25 20.7725L10.5587 22.155C10.4462 22.38 10.2075 22.5163 9.95625 22.4988C9.70375 22.48 9.4875 22.3125 9.4075 22.0725L8.1575 18.3225C8.0475 17.995 8.225 17.6413 8.5525 17.5325C8.88 17.4225 9.23375 17.6 9.3425 17.9275L10.1163 20.2462L10.6913 19.095C10.7963 18.8838 11.0138 18.75 11.25 18.75C11.4862 18.75 11.7037 18.8838 11.8087 19.095L12.3837 20.2462ZM29.8837 20.2462L30.6575 17.9275C30.7663 17.6 31.12 17.4225 31.4475 17.5325C31.775 17.6413 31.9525 17.995 31.8425 18.3225L30.5925 22.0725C30.5125 22.3125 30.2963 22.48 30.0438 22.4988C29.7925 22.5163 29.5538 22.38 29.4413 22.155L28.75 20.7725L28.0587 22.155C27.9462 22.38 27.7075 22.5163 27.4562 22.4988C27.2037 22.48 26.9875 22.3125 26.9075 22.0725L25.6575 18.3225C25.5475 17.995 25.725 17.6413 26.0525 17.5325C26.38 17.4225 26.7337 17.6 26.8425 17.9275L27.6163 20.2462L28.1913 19.095C28.2963 18.8838 28.5138 18.75 28.75 18.75C28.9862 18.75 29.2037 18.8838 29.3087 19.095L29.8837 20.2462ZM24.6325 6.38875C26.4913 8.13875 27.97 10.9613 28.755 14.375H33.2312C31.6387 10.6363 28.5063 7.70875 24.6325 6.38875ZM22.1562 6.14875C23.0312 7.8225 23.7425 10.7625 24.105 14.375H27.47C26.7362 11.36 25.4325 8.85875 23.7737 7.2975C23.265 6.81875 22.7237 6.43 22.1562 6.14875V6.14875ZM22.8487 14.375C22.5312 11.2738 21.9613 8.70375 21.2325 7.10125C21 6.59125 20.7562 6.1875 20.4937 5.91375C20.3312 5.745 20.1763 5.625 20 5.625C19.8237 5.625 19.6688 5.745 19.5063 5.91375C19.2438 6.1875 19 6.59125 18.7675 7.10125C18.0387 8.70375 17.4688 11.2738 17.1513 14.375H22.8487ZM17.8438 6.14875C17.2763 6.43 16.735 6.81875 16.2263 7.2975C14.5675 8.85875 13.2638 11.36 12.53 14.375H15.895C16.2575 10.7612 16.9688 7.8225 17.8438 6.14875V6.14875ZM15.3675 6.38875C11.4937 7.70875 8.3625 10.6363 6.76875 14.375H11.245C12.03 10.96 13.5087 8.13875 15.3675 6.38875Z" fill="#939393"/>
</svg>
