<svg width="14" height="14" viewBox="0 0 14 14" fill="none" xmlns="http://www.w3.org/2000/svg">
<path d="M7.32812 0.177734C4.52266 0.177734 1.75 2.04805 1.75 5.075C1.75 7 2.83281 8.09375 3.48906 8.09375C3.75977 8.09375 3.91562 7.33906 3.91562 7.12578C3.91562 6.87148 3.26758 6.33008 3.26758 5.27188C3.26758 3.07344 4.94102 1.51484 7.10664 1.51484C8.96875 1.51484 10.3469 2.57305 10.3469 4.51719C10.3469 5.96914 9.76445 8.69258 7.87773 8.69258C7.19688 8.69258 6.61445 8.20039 6.61445 7.49492C6.61445 6.46133 7.33633 5.46055 7.33633 4.39414C7.33633 2.58398 4.76875 2.91211 4.76875 5.09961C4.76875 5.55898 4.82617 6.06758 5.03125 6.48594C4.65391 8.11016 3.88281 10.5301 3.88281 12.2035C3.88281 12.7203 3.95664 13.2289 4.00586 13.7457C4.09883 13.8496 4.05234 13.8387 4.19453 13.7867C5.57266 11.9 5.52344 11.5309 6.14688 9.06172C6.4832 9.70156 7.35273 10.0461 8.0418 10.0461C10.9457 10.0461 12.25 7.21602 12.25 4.66484C12.25 1.94961 9.90391 0.177734 7.32812 0.177734Z" fill="#ED1C22"/>
</svg>
