<svg width="20" height="21" viewBox="0 0 20 21" fill="none" xmlns="http://www.w3.org/2000/svg">
<path d="M10.75 7.19446C10.75 6.78024 10.4142 6.44446 10 6.44446C9.58579 6.44446 9.25 6.78024 9.25 7.19446L9.25 9.69446H6.75C6.33579 9.69446 6 10.0302 6 10.4445C6 10.8587 6.33579 11.1945 6.75 11.1945H9.25L9.25 13.6945C9.25 14.1087 9.58579 14.4445 10 14.4445C10.4142 14.4445 10.75 14.1087 10.75 13.6945V11.1945H13.25C13.6642 11.1945 14 10.8587 14 10.4445C14 10.0302 13.6642 9.69446 13.25 9.69446H10.75V7.19446Z" fill="#4A4A4A"/>
</svg>
