<svg width="21" height="21" viewBox="0 0 21 21" fill="none" xmlns="http://www.w3.org/2000/svg">
<path d="M17.5549 9.65805C17.5549 10.0723 17.2191 10.4081 16.8049 10.4081C16.3907 10.4081 16.0549 10.0723 16.0549 9.65805C16.0549 8.0012 14.7118 6.65805 13.0549 6.65805H6.48895L7.6124 7.90633C7.8895 8.21421 7.86454 8.68843 7.55665 8.96552C7.24877 9.24261 6.77455 9.21766 6.49746 8.90977L4.24746 6.40977C3.98061 6.11328 3.99254 5.65978 4.2746 5.37772L6.5246 3.12772C6.8175 2.83483 7.29237 2.83483 7.58526 3.12772C7.87815 3.42061 7.87815 3.89549 7.58526 4.18838L6.61559 5.15805H13.0549C15.5402 5.15805 17.5549 7.17277 17.5549 9.65805Z" fill="#4A4A4A"/>
<path d="M3.55493 11.158C3.55493 10.7438 3.89072 10.408 4.30493 10.408C4.71915 10.408 5.05493 10.7438 5.05493 11.158C5.05493 12.8149 6.39808 14.158 8.05493 14.158H14.6209L13.4975 12.9098C13.2204 12.6019 13.2453 12.1277 13.5532 11.8506C13.8611 11.5735 14.3353 11.5984 14.6124 11.9063L16.8624 14.4063C17.1292 14.7028 17.1173 15.1563 16.8353 15.4384L14.5853 17.6884C14.2924 17.9813 13.8175 17.9813 13.5246 17.6884C13.2317 17.3955 13.2317 16.9206 13.5246 16.6277L14.4943 15.658H8.05493C5.56965 15.658 3.55493 13.6433 3.55493 11.158Z" fill="#4A4A4A"/>
</svg>
