<svg width="20" height="21" viewBox="0 0 20 21" fill="none" xmlns="http://www.w3.org/2000/svg">
<path fill-rule="evenodd" clip-rule="evenodd" d="M12.3226 14.1333C11.3996 14.8341 10.2484 15.25 9 15.25C5.96243 15.25 3.5 12.7876 3.5 9.75C3.5 6.71243 5.96243 4.25 9 4.25C12.0376 4.25 14.5 6.71243 14.5 9.75C14.5 10.9984 14.0841 12.1496 13.3833 13.0726L16.2803 15.9697C16.5732 16.2626 16.5732 16.7374 16.2803 17.0303C15.9874 17.3232 15.5126 17.3232 15.2197 17.0303L12.3226 14.1333ZM13 9.75C13 11.9591 11.2091 13.75 9 13.75C6.79086 13.75 5 11.9591 5 9.75C5 7.54086 6.79086 5.75 9 5.75C11.2091 5.75 13 7.54086 13 9.75Z" fill="#4A4A4A"/>
</svg>
