<svg width="37" height="40" viewBox="0 0 37 40" fill="none" xmlns="http://www.w3.org/2000/svg">
                      <path d="M17.8293 20.902V26.8483L17.2448 27.6759H14.52L17.2448 21.2528L17.8293 20.902Z" fill="#3CAE98"/>
                      <path d="M17.2448 21.2528H14.52V27.6759H17.2448V21.2528Z" fill="#67C5B8"/>
                      <path d="M22.1103 18.2029V26.8479L21.5618 27.6756H18.801L21.5618 18.5807L22.1103 18.2029Z" fill="#EEA944"/>
                      <path d="M18.801 18.5807L19.7992 18.2029H22.1103L21.5618 18.5807L18.801 27.6756V18.5807Z" fill="#F5B54C"/>
                      <path d="M21.5527 18.5808H18.8279V27.6757H21.5527V18.5808Z" fill="#FFD05C"/>
                      <path d="M26.4262 15.7382V26.8481L25.8327 27.6757H23.1079L25.8327 16.089L26.4262 15.7382Z" fill="#4DACE0"/>
                      <path d="M23.1079 16.089L23.7644 15.7382H26.4262L25.8327 16.089L23.1079 27.6757V16.089Z" fill="#56BFEB"/>
                      <path d="M25.8237 16.089H23.1079V27.6757H25.8237V16.089Z" fill="#89D6F7"/>
                      <path d="M35.8059 15.3872C35.8059 15.3872 34.3671 11.3571 34.3671 11.3481C34.3131 11.1771 34.1782 11.0692 34.0074 11.0152C33.8815 10.9882 33.7556 10.9522 33.6207 10.9522C33.4768 10.9522 33.3329 10.9702 33.198 10.9882C33.0811 11.0062 32.9642 11.0152 32.8563 11.0422C32.7124 11.0692 32.5685 11.0872 32.4157 11.1052C32.2448 11.1322 32.0829 11.1502 31.9211 11.1861C31.7502 11.2041 31.5704 11.2401 31.3905 11.2581C31.2106 11.2851 31.0308 11.3211 30.8599 11.3391C30.6891 11.3661 30.5182 11.384 30.3473 11.411C30.2934 11.429 30.2304 11.429 30.1765 11.438C28.9984 9.9447 27.5056 8.75725 25.833 7.95661L25.851 7.65975C25.86 7.48883 25.869 7.30891 25.878 7.11999C25.8869 6.94907 25.8959 6.76915 25.8959 6.59823C25.8959 6.42731 25.9139 6.26538 25.9229 6.09446C25.9229 5.94153 25.9409 5.7976 25.9499 5.65366C25.9499 5.53672 25.9589 5.42877 25.9589 5.30282C25.9589 5.15889 25.9769 5.02395 25.9589 4.88002C25.9409 4.74508 25.8959 4.61914 25.851 4.50219C25.779 4.34926 25.6531 4.23231 25.4823 4.18733L21.3186 3.1618C20.9589 3.07184 20.6892 3.31473 20.5003 3.65658L19.0075 6.8861C18.1622 6.99405 17.3079 7.19196 16.4716 7.49782C15.5093 7.84866 14.6101 8.30745 13.7917 8.84721C13.6658 8.77524 13.5309 8.70327 13.3961 8.6313C13.2432 8.55034 13.0813 8.45139 12.9194 8.36143C12.7666 8.27147 12.6227 8.18151 12.4608 8.10055L12.0202 7.84866C11.8943 7.7767 11.7594 7.71372 11.6425 7.63276C11.5436 7.57878 11.4356 7.51581 11.3277 7.46184C11.2108 7.39887 11.0849 7.3269 10.959 7.27292C10.8331 7.22795 10.6982 7.20995 10.5723 7.20096C10.4015 7.20096 10.2396 7.25493 10.1227 7.38088C10.1227 7.39887 7.32597 10.6464 7.32597 10.6464C7.08317 10.9253 7.18208 11.2761 7.39791 11.591L9.42127 14.1638C8.75581 15.7111 8.4051 17.4113 8.42308 19.1295C8.34215 19.1745 8.25222 19.2285 8.17128 19.2734C8.00942 19.3544 7.85654 19.4444 7.70366 19.5253C7.54179 19.6153 7.38892 19.7052 7.22705 19.7862C7.08317 19.8672 6.93928 19.9481 6.7954 20.0291C6.6695 20.1011 6.5436 20.173 6.4177 20.245C6.31878 20.299 6.21087 20.3619 6.11195 20.4159C5.98605 20.4879 5.86016 20.5419 5.75224 20.6408C5.65332 20.7218 5.5634 20.8297 5.49145 20.9287C5.40153 21.0726 5.35656 21.2435 5.41052 21.4145L6.72346 25.4986C6.83137 25.8494 7.18209 25.9484 7.56877 25.9394L10.4015 25.6066C11.8043 27.7746 13.8457 29.3938 16.1658 30.3024C16.1658 30.4194 16.1658 30.5273 16.1838 30.6443C16.1838 30.8242 16.1838 31.0131 16.1928 31.184C16.1928 31.3549 16.1928 31.5348 16.1928 31.7148C16.1928 31.8857 16.1928 32.0566 16.2018 32.2185V32.6503C16.2018 32.7673 16.2198 32.8932 16.2198 33.0012C16.2198 33.1451 16.2198 33.289 16.2557 33.433C16.2827 33.5589 16.3187 33.6849 16.3906 33.8018C16.4716 33.9457 16.5975 34.0627 16.7773 34.0987L20.9949 34.8453C21.3636 34.8993 21.6064 34.6474 21.7773 34.2876L23.0812 30.8961C23.6298 30.7702 24.1873 30.6263 24.7269 30.4284C25.5632 30.1315 26.3456 29.7447 27.083 29.2769C27.1819 29.3488 27.2718 29.3938 27.3708 29.4478C27.5236 29.5468 27.6855 29.6367 27.8294 29.7357L28.288 30.0055C28.4319 30.1045 28.5668 30.1765 28.7107 30.2664C28.8456 30.3474 28.9715 30.4284 29.0884 30.4913C29.1783 30.5543 29.2862 30.6263 29.3851 30.6802C29.502 30.7522 29.6189 30.8242 29.7628 30.8781C29.8887 30.9231 30.0146 30.9501 30.1495 30.9591C30.3294 30.9771 30.4822 30.9141 30.5991 30.7882L33.4858 27.6216C33.7376 27.3428 33.6477 26.9919 33.4498 26.6681L31.5973 24.1852C32.5146 22.2421 32.9193 20.0741 32.7214 17.8791L35.4013 16.2778C35.725 16.0619 35.9318 15.765 35.8149 15.4142L35.8059 15.3872ZM23.6118 27.3248C18.9805 28.998 13.8727 26.5961 12.209 21.9632C10.5364 17.3393 12.9464 12.2297 17.5777 10.5654C22.2089 8.89219 27.3078 11.2941 28.9715 15.936C30.6441 20.5599 28.2341 25.6695 23.6118 27.3338V27.3248Z" fill="#7367F0"/>
                      <path d="M27.7658 2.92802C27.7118 3.05396 27.7118 3.1799 27.7837 3.23388L29.6632 4.83515L27.415 7.48894L30.5085 10.1067L32.7477 7.45295L34.6362 9.05422C34.6991 9.1082 34.825 9.0992 34.933 9.00924C35.0499 8.92828 35.1398 8.80234 35.1578 8.6764L36.4347 0.220256C36.4527 0.139293 36.4347 0.0763213 36.3808 0.0313419C36.3268 0.0043542 36.2639 -0.0136376 36.1829 0.0133501L28.0445 2.65814C27.9366 2.69413 27.8197 2.80208 27.7568 2.92802H27.7658Z" fill="#3131AA"/>
                      <path d="M0.778526 40C0.778526 40 4.17778 35.4301 6.15617 34.6385C6.15617 34.6385 5.19395 35.0613 4.46554 34.8724C4.46554 34.8724 6.10222 31.5169 8.10759 30.7972C8.10759 30.7972 7.65796 30.4644 6.76768 30.9412C6.76768 30.9412 10.1849 25.3637 11.2191 28.1974C11.2191 28.1974 8.52126 30.4194 10.7155 30.0956C10.7155 30.0956 10.4907 31.328 9.90614 31.8408C9.90614 31.8408 11.5068 31.391 12.541 30.0956C12.541 30.0956 13.6651 28.6202 13.6021 30.8692C13.6021 30.8692 13.3144 32.2186 10.9853 34.0987C11.0033 34.0808 11.0212 34.0538 11.0392 34.0358C11.0842 33.9728 11.1202 33.9188 11.1651 33.8648C11.282 33.6669 11.363 33.442 11.3899 33.2171C11.3899 33.1362 11.3899 33.0552 11.3899 32.9653C11.3899 32.8933 11.363 32.8123 11.354 32.7404C11.336 32.6684 11.354 32.5784 11.309 32.5245C11.273 32.4885 11.2281 32.4615 11.1651 32.4615C11.0392 32.4615 10.9133 32.5425 10.8234 32.6144C10.8144 32.6234 10.7964 32.6414 10.7874 32.6504C10.7604 32.6954 10.7425 32.7314 10.7155 32.7763C10.6615 32.8843 10.6076 32.9922 10.5446 33.1002C10.4547 33.2531 10.3648 33.4151 10.2569 33.568C10.131 33.7569 9.99607 33.9458 9.86118 34.1257C9.69931 34.3416 9.52844 34.5395 9.35758 34.7285C9.15974 34.9354 8.9619 35.1333 8.74608 35.3042C8.53025 35.5021 8.28745 35.673 8.03565 35.835C7.77487 35.9969 7.50508 36.1318 7.21732 36.2308C6.98351 36.3297 6.73171 36.3927 6.4889 36.4377C6.4889 36.4377 7.67594 35.8619 8.62018 33.433C8.62018 33.433 2.62203 39.7662 0.769531 39.9911L0.778526 40Z" fill="#3131AA"/>
                    </svg>