<svg width="20" height="21" viewBox="0 0 20 21" fill="none" xmlns="http://www.w3.org/2000/svg">
<path fill-rule="evenodd" clip-rule="evenodd" d="M12.5 10.4445C12.5 11.8252 11.3807 12.9445 10 12.9445C8.61929 12.9445 7.5 11.8252 7.5 10.4445C7.5 9.06375 8.61929 7.94446 10 7.94446C11.3807 7.94446 12.5 9.06375 12.5 10.4445ZM11 10.4445C11 10.9967 10.5523 11.4445 10 11.4445C9.44772 11.4445 9 10.9967 9 10.4445C9 9.89217 9.44772 9.44446 10 9.44446C10.5523 9.44446 11 9.89217 11 10.4445Z" fill="#4A4A4A"/>
<path fill-rule="evenodd" clip-rule="evenodd" d="M9.37662 2.94446C8.45098 2.94446 7.7006 3.69483 7.7006 4.62047V5.30816C7.7006 5.36463 7.65837 5.47851 7.5034 5.55947C7.34955 5.63986 7.20009 5.72741 7.05548 5.82168C6.90777 5.91798 6.78653 5.89783 6.73714 5.86932L6.13733 5.52302C5.33571 5.0602 4.31067 5.33486 3.84786 6.13648L3.22458 7.21603C2.76176 8.01765 3.03642 9.04269 3.83804 9.5055L4.48553 9.87933C4.53418 9.90742 4.61041 9.99914 4.60491 10.1703C4.60303 10.2288 4.60208 10.2875 4.60208 10.3464C4.60208 10.4428 4.60462 10.5388 4.60964 10.6341C4.61889 10.8099 4.54087 10.9048 4.4914 10.9334L3.83805 11.3106C3.03642 11.7734 2.76177 12.7984 3.22459 13.6001L3.84786 14.6796C4.31068 15.4812 5.33572 15.7559 6.13734 15.2931L6.83779 14.8887C6.88631 14.8607 7.00401 14.8404 7.14992 14.9313C7.2649 15.0029 7.3828 15.0703 7.5034 15.1333C7.65837 15.2143 7.7006 15.3281 7.7006 15.3846V16.1956C7.7006 17.1213 8.45098 17.8716 9.37662 17.8716H10.6232C11.5488 17.8716 12.2992 17.1213 12.2992 16.1956V15.3847C12.2992 15.3282 12.3414 15.2143 12.4964 15.1334C12.617 15.0703 12.7349 15.0029 12.8499 14.9313C12.9958 14.8404 13.1135 14.8607 13.162 14.8887L13.8624 15.2931C14.664 15.7559 15.6891 15.4812 16.1519 14.6796L16.7752 13.6001C17.238 12.7984 16.9633 11.7734 16.1617 11.3106L15.5085 10.9335C15.459 10.9049 15.381 10.81 15.3903 10.6342C15.3953 10.5388 15.3978 10.4429 15.3978 10.3464C15.3978 10.2874 15.3969 10.2287 15.395 10.1702C15.3895 9.99906 15.4657 9.90733 15.5144 9.87925L16.1617 9.5055C16.9633 9.04269 17.238 8.01765 16.7752 7.21603L16.1519 6.13648C15.6891 5.33486 14.6641 5.0602 13.8624 5.52302L13.2627 5.86927C13.2133 5.89778 13.0921 5.91793 12.9444 5.82164C12.7997 5.72736 12.6503 5.6398 12.4964 5.55941C12.3414 5.47845 12.2992 5.36457 12.2992 5.3081V4.62047C12.2992 3.69483 11.5488 2.94446 10.6232 2.94446H9.37662ZM9.2006 4.62047C9.2006 4.52326 9.27941 4.44446 9.37662 4.44446H10.6232C10.7204 4.44446 10.7992 4.52326 10.7992 4.62047V5.3081C10.7992 6.03656 11.2611 6.60642 11.8018 6.88892C11.9128 6.94691 12.0207 7.01011 12.1252 7.07822C12.6422 7.41521 13.375 7.5365 14.0127 7.16831L14.6124 6.82205C14.6966 6.77345 14.8043 6.80229 14.8529 6.88648L15.4761 7.96603C15.5247 8.05021 15.4959 8.15786 15.4117 8.20647L14.7644 8.58021C14.1412 8.94002 13.8763 9.6141 13.8958 10.2184C13.8971 10.2609 13.8978 10.3035 13.8978 10.3464C13.8978 10.4165 13.896 10.4862 13.8923 10.5553C13.8599 11.1709 14.1217 11.8648 14.7585 12.2325L15.4117 12.6096C15.4959 12.6582 15.5247 12.7659 15.4761 12.8501L14.8529 13.9296C14.8043 14.0138 14.6966 14.0426 14.6124 13.994L13.912 13.5897C13.2877 13.2292 12.5706 13.3382 12.057 13.658C11.974 13.7097 11.8888 13.7584 11.8018 13.8039C11.2611 14.0863 10.7992 14.6562 10.7992 15.3847V16.1956C10.7992 16.2928 10.7204 16.3716 10.6232 16.3716H9.37662C9.27941 16.3716 9.2006 16.2928 9.2006 16.1956V15.3846C9.2006 14.6562 8.73872 14.0863 8.198 13.8038C8.111 13.7584 8.0259 13.7097 7.94286 13.658C7.42926 13.3381 6.71212 13.2292 6.08779 13.5896L5.38734 13.994C5.30315 14.0426 5.19551 14.0138 5.1469 13.9296L4.52362 12.8501C4.47502 12.7659 4.50386 12.6582 4.58805 12.6096L5.2414 12.2324C5.87819 11.8648 6.13997 11.1708 6.10757 10.5553C6.10393 10.4862 6.10208 10.4165 6.10208 10.3464C6.10208 10.3035 6.10277 10.2609 6.10414 10.2184C6.12356 9.61416 5.85874 8.9401 5.23553 8.58029L4.58804 8.20647C4.50386 8.15786 4.47501 8.05021 4.52362 7.96603L5.14689 6.88648C5.1955 6.80229 5.30315 6.77345 5.38733 6.82205L5.98714 7.16835C6.62487 7.53655 7.3577 7.41525 7.87464 7.07826C7.97912 7.01015 8.08701 6.94695 8.198 6.88896C8.73872 6.60646 9.2006 6.0366 9.2006 5.30816V4.62047Z" fill="#4A4A4A"/>
</svg>
