<svg width="14" height="14" viewBox="0 0 14 14" fill="none" xmlns="http://www.w3.org/2000/svg">
<path d="M13.4793 9.86337C13.346 10.1665 12.7827 10.3892 11.7566 10.5445C11.7039 10.6139 11.6601 10.9106 11.5902 11.1417C11.5487 11.2805 11.4464 11.3628 11.2801 11.3628L11.2725 11.3627C11.0322 11.3627 10.7814 11.2549 10.2789 11.2549C9.60065 11.2549 9.36689 11.4056 8.84027 11.7682C8.28195 12.1531 7.74646 12.4854 6.94713 12.4513C6.13783 12.5095 5.46322 12.0298 5.08356 11.7681C4.55383 11.403 4.32075 11.255 3.64527 11.255C3.16285 11.255 2.85924 11.3726 2.65169 11.3726C2.44523 11.3726 2.36493 11.2499 2.33401 11.1473C2.26488 10.9182 2.22138 10.6171 2.16719 10.5457C1.63836 10.4656 0.445832 10.2628 0.415451 9.74409C0.411768 9.67891 0.432901 9.61469 0.474797 9.56376C0.516692 9.51283 0.5764 9.47878 0.642468 9.46812C2.42196 9.18253 3.22346 7.40125 3.25678 7.32563C3.25868 7.32124 3.26075 7.31705 3.26284 7.31279C3.3578 7.12488 3.37905 6.96751 3.32583 6.84524C3.19669 6.54865 2.63862 6.44225 2.40383 6.35169C1.79735 6.11818 1.71295 5.84986 1.74883 5.66597C1.81116 5.34594 2.30442 5.14901 2.59281 5.2807C2.82091 5.38494 3.02355 5.43769 3.195 5.43769C3.32343 5.43769 3.40501 5.40767 3.44971 5.38356C3.39746 4.48761 3.26811 3.20726 3.59515 2.49224C4.45885 0.604454 6.28948 0.457755 6.82962 0.457755C6.85377 0.457755 7.06339 0.455536 7.08817 0.455536C8.42179 0.455536 9.70318 1.12321 10.3289 2.49105C10.6557 3.20534 10.5271 4.48041 10.4746 5.38336C10.515 5.40511 10.586 5.43178 10.6945 5.43669C10.8581 5.42956 11.0478 5.37713 11.2589 5.2807C11.4145 5.20974 11.6273 5.21934 11.7826 5.28214L11.7834 5.28239C12.0257 5.36679 12.1782 5.53707 12.182 5.72792C12.1867 5.97093 11.9641 6.18081 11.5202 6.35167C11.4661 6.37249 11.4002 6.39293 11.3301 6.41462C11.0796 6.49206 10.701 6.60921 10.5983 6.84522C10.5451 6.96748 10.5662 7.12473 10.6612 7.31264C10.6634 7.31683 10.6655 7.32117 10.6673 7.32548C10.7006 7.40102 11.5014 9.18191 13.2817 9.46797C13.4461 9.49435 13.5672 9.66436 13.4793 9.86337Z" fill="#484805"/>
<path d="M12.8442 9.74881C12.7234 10.0307 12.2126 10.2378 11.2824 10.3822C11.2346 10.4468 11.1949 10.7227 11.1316 10.9376C11.0939 11.0667 11.0012 11.1432 10.8504 11.1432L10.8435 11.1431C10.6257 11.1431 10.3983 11.0429 9.94269 11.0429C9.32779 11.0429 9.11585 11.183 8.63842 11.5202C8.13223 11.8782 7.64676 12.1871 6.92207 12.1555C6.18835 12.2096 5.57674 11.7635 5.23253 11.5201C4.75227 11.1806 4.54096 11.0429 3.92857 11.0429C3.4912 11.0429 3.21594 11.1524 3.02777 11.1524C2.84059 11.1524 2.76779 11.0382 2.73976 10.9428C2.67709 10.7297 2.63765 10.4498 2.58852 10.3833C2.10907 10.3089 1.02792 10.1203 1.00037 9.63789C0.997034 9.57727 1.01619 9.51755 1.05418 9.47019C1.09216 9.42283 1.14629 9.39115 1.20619 9.38125C2.8195 9.11566 3.54615 7.45916 3.57636 7.38884C3.57807 7.38476 3.57995 7.38086 3.58185 7.3769C3.66794 7.20215 3.68721 7.0558 3.63896 6.9421C3.52187 6.66629 3.01592 6.56734 2.80306 6.48313C2.25322 6.26597 2.17671 6.01645 2.20923 5.84544C2.26574 5.54783 2.71294 5.36469 2.9744 5.48715C3.18119 5.58409 3.36491 5.63315 3.52034 5.63315C3.63678 5.63315 3.71074 5.60524 3.75127 5.58282C3.7039 4.74963 3.58663 3.55897 3.88312 2.89403C4.66616 1.13849 6.32584 1.00206 6.81554 1.00206C6.83743 1.00206 7.02748 1 7.04994 1C8.25901 1 9.42074 1.6209 9.98806 2.89292C10.2843 3.55718 10.1677 4.74293 10.1201 5.58263C10.1568 5.60285 10.2211 5.62766 10.3195 5.63222C10.4678 5.62559 10.6398 5.57683 10.8311 5.48715C10.9722 5.42117 11.1652 5.43009 11.306 5.4885L11.3067 5.48873C11.5264 5.56721 11.6646 5.72557 11.6681 5.90305C11.6724 6.12904 11.4705 6.32421 11.0681 6.4831C11.019 6.50246 10.9593 6.52147 10.8957 6.54165C10.6686 6.61366 10.3254 6.72261 10.2323 6.94208C10.1841 7.05578 10.2032 7.20201 10.2893 7.37676C10.2913 7.38065 10.2932 7.38469 10.2948 7.3887C10.325 7.45895 11.051 9.11508 12.6651 9.38111C12.8141 9.40564 12.9239 9.56374 12.8442 9.74881Z" fill="#FDFE03"/>
</svg>
