<svg width="20" height="20" viewBox="0 0 20 20" fill="none" xmlns="http://www.w3.org/2000/svg">
<path fill-rule="evenodd" clip-rule="evenodd" d="M5.71983 11.5301C5.86045 11.6705 6.05108 11.7494 6.24983 11.7494C6.44858 11.7494 6.6392 11.6705 6.77983 11.5301L10.2498 8.0601L13.7198 11.5301C13.7885 11.6038 13.8713 11.6629 13.9633 11.7039C14.0553 11.7449 14.1546 11.7669 14.2553 11.7687C14.356 11.7705 14.456 11.7519 14.5494 11.7142C14.6428 11.6765 14.7276 11.6204 14.7989 11.5491C14.8701 11.4779 14.9262 11.3931 14.964 11.2997C15.0017 11.2063 15.0202 11.1063 15.0184 11.0056C15.0166 10.9049 14.9946 10.8056 14.9536 10.7136C14.9126 10.6216 14.8535 10.5388 14.7798 10.4701L10.7798 6.4701C10.6392 6.3296 10.4486 6.2508 10.2498 6.2508C10.0511 6.2508 9.86045 6.3296 9.71983 6.4701L5.71983 10.4701C5.57938 10.6107 5.50049 10.8013 5.50049 11.0001C5.50049 11.1988 5.57938 11.3895 5.71983 11.5301Z" fill="#1F2124"/>
</svg>
