<svg width="14" height="14" viewBox="0 0 14 14" fill="none" xmlns="http://www.w3.org/2000/svg">
<path d="M13.3596 3.79368C13.207 3.21885 12.7572 2.76614 12.1861 2.6125C11.1509 2.33333 6.99996 2.33333 6.99996 2.33333C6.99996 2.33333 2.84906 2.33333 1.81386 2.6125C1.24275 2.76616 0.792953 3.21885 0.64029 3.79368C0.362915 4.83558 0.362915 7.00942 0.362915 7.00942C0.362915 7.00942 0.362915 9.18326 0.64029 10.2252C0.792953 10.8 1.24275 11.2338 1.81386 11.3875C2.84906 11.6667 6.99996 11.6667 6.99996 11.6667C6.99996 11.6667 11.1509 11.6667 12.1861 11.3875C12.7572 11.2338 13.207 10.8 13.3596 10.2252C13.637 9.18326 13.637 7.00942 13.637 7.00942C13.637 7.00942 13.637 4.83558 13.3596 3.79368ZM5.64237 8.98311V5.03574L9.11172 7.00947L5.64237 8.98311Z" fill="#FE0000"/>
</svg>
